<svg width="1593" height="253" viewBox="0 0 1593 253" fill="none" xmlns="http://www.w3.org/2000/svg">
<rect width="167.966" height="164.848" rx="10" transform="matrix(0.974452 -0.22464 0.233567 0.972331 623.953 75.1953)" fill="#F5FAFF"/>
<path d="M819.643 212.286C815.966 201.146 803.211 177.409 778.636 177.914L750.092 179.165L721.903 185.673L695.769 196.995C673.528 207.272 672.845 234.107 674.593 245.692L819.642 212.289L819.643 212.286Z" fill="#CE4F37"/>
<path d="M718.077 94.7925C716.392 95.1472 709.64 96.702 707.97 97.1196C681.643 102.644 668.387 147.696 693.636 165.208C702.261 171.806 718.702 171.278 722.384 169.282C722.774 169.069 721.651 160.645 721.835 160.476C724.175 156.919 725.464 155.517 726.911 153.813C728.982 154.707 730.773 155.4 734.487 157.563C734.729 157.632 737.556 165.665 738.002 165.686C742.206 165.866 757.165 159.165 761.885 149.494C776.524 122.797 744.158 88.25 718.077 94.7925Z" fill="#5A5E7D"/>
<path d="M750.518 179.13C751.51 183.259 745.995 188.055 737.602 189.981C729.209 191.907 722.087 190.012 721.096 185.883L716.371 161.332L710.507 142.157L707.619 132.715C707.417 132.052 707.506 131.406 707.888 130.762C708.27 130.115 708.916 129.786 709.605 129.628L735.052 123.788C735.665 123.647 736.311 123.646 736.879 124.009C737.447 124.373 737.793 124.884 737.907 125.49L743.154 153.335L750.521 179.128L750.518 179.13Z" fill="#B17854"/>
<path d="M746.945 165.973L744.445 157.973L716.611 165.414L740.129 174.311C743.945 175.473 747.445 171.973 747.945 170.473L746.945 165.973Z" fill="#996748"/>
<path d="M725.028 128.536C725.028 128.536 725.026 128.529 725.024 128.522L725.008 128.504C725.017 128.518 725.024 128.527 725.03 128.537L725.028 128.536Z" fill="#CC8348"/>
<path d="M724.043 128.754C724.043 128.754 724.042 128.747 724.04 128.741L724.023 128.723C724.031 128.737 724.037 128.747 724.046 128.756L724.043 128.754Z" fill="#CC8348"/>
<path d="M738.437 138.273L738.927 140.315C739.171 141.311 738.909 142.689 738.466 143.597C738.022 144.507 737.106 145.388 736.278 145.583L727.082 147.748L717.865 149.822C717.037 150.009 715.814 149.621 715.003 149C714.193 148.378 713.331 147.259 713.096 146.262L712.606 144.22L708.914 145.07L713.298 161.712C713.706 163.436 714.641 164.93 716.039 166.001C718.518 168.832 738.353 170.938 745.267 159.244C746.032 157.675 745.935 155.583 745.518 153.862L742.132 137.422L738.437 138.273Z" fill="#B17854"/>
<path d="M710.298 142.255C713.502 144.586 716.508 149.528 714.849 151.72C713.191 153.912 707.495 152.524 704.289 150.195C701.083 147.865 701.584 145.472 703.242 143.28C704.901 141.088 707.092 139.926 710.298 142.257L710.298 142.255Z" fill="#B17854"/>
<path d="M738.76 135.652C736.953 139.137 736.511 144.871 738.993 146.11C741.476 147.349 745.943 143.622 747.753 140.138C749.561 136.654 748.025 134.73 745.543 133.491C743.06 132.252 740.568 132.169 738.761 135.653L738.76 135.652Z" fill="#B17854"/>
<path d="M706.358 140.899L709.542 144.205C710.36 144.762 711.354 144.508 710.638 142.567L709.36 138.774L706.357 140.897L706.358 140.899Z" fill="#5A5E7D"/>
<path d="M742.827 132.455L741.481 136.804C741.005 137.658 739.999 137.864 739.754 135.814L739.171 131.861L742.826 132.454L742.827 132.455Z" fill="#5A5E7D"/>
<path d="M1583.06 47.9345L1396.85 3.05033C1391.48 1.75616 1386.03 5.04928 1384.69 10.4057L1338.94 192.55C1337.6 197.907 1340.86 203.298 1346.23 204.592L1532.44 249.476C1537.81 250.771 1543.25 247.477 1544.6 242.121L1590.34 59.9764C1591.69 54.62 1588.43 49.2287 1583.06 47.9345Z" fill="#F5FAFF"/>
<path d="M1451 68.9985C1457.33 81.5985 1438.46 89.497 1428.24 131.142C1408.98 198.151 1482.96 180.559 1472.17 234.326L1522.79 247.127C1526.9 231.751 1540.97 197.504 1524.45 172.195C1513.1 156.608 1508.5 146.196 1508.41 125.495C1513.24 91.6853 1491 51.4972 1451 68.9985Z" fill="#FBBC12"/>
<path d="M1491.19 109.465C1493.64 126.028 1478.81 141.952 1494.49 158.506C1524.17 184.128 1516.9 217.877 1505.84 240.857L1448.83 189.41L1466.33 124.197L1491.19 109.463L1491.19 109.465Z" fill="#FFC05A"/>
<path d="M1501.17 179.952C1501.04 179.888 1469.36 160.513 1469.36 160.513L1439.06 153.216C1439.06 153.216 1401.83 155.996 1401.69 155.996C1379.28 159.978 1370.15 187.452 1355.14 206.71L1518.52 246.055C1514.29 222.164 1519.16 193.668 1501.17 179.951L1501.17 179.952Z" fill="#62D5FA"/>
<path d="M1468.62 162.939L1473.44 131.798L1448.57 125.817L1439.21 155.878C1433.51 176.498 1463.51 185.498 1468.62 162.939Z" fill="#E38C46"/>
<path d="M1470.5 148L1473.48 131.631L1448.62 125.647L1446.5 132.5L1451.5 137L1470.5 148Z" fill="#C06827"/>
<path d="M1484.1 119.322C1481 117.068 1481.23 111.646 1484.63 107.215C1488.02 102.78 1493.29 101.013 1496.39 103.269C1499.5 105.521 1499.26 110.943 1495.87 115.377C1492.48 119.808 1487.21 121.574 1484.1 119.322Z" fill="#D17D3B"/>
<path d="M1491.99 123.089C1491.57 124.748 1489.86 125.762 1488.17 125.354C1486.48 124.946 1485.44 123.271 1485.86 121.613C1486.27 119.954 1487.98 118.94 1489.68 119.348C1491.37 119.756 1492.41 121.431 1491.99 123.089Z" fill="white"/>
<path d="M1479.16 78.2514C1476.95 77.6781 1474.89 77.1722 1472.92 76.725L1472.88 76.7142C1472.83 76.6993 1472.77 76.6856 1472.72 76.6725L1472.55 76.6325C1472.54 76.6314 1472.52 76.628 1472.51 76.6246C1470.55 76.1327 1468.49 75.643 1466.26 75.1493C1459.18 73.8658 1448.19 75.9395 1445.1 88.2359C1442 95.0281 1434.99 115.798 1440.68 124.481C1444.06 131.958 1452.92 138.02 1456.54 138.999L1457.54 139.197C1461.33 139.92 1472.66 138.27 1478.47 133.571C1487.71 126.997 1492.28 106.144 1491.71 99.4476C1492.49 86.8822 1485.76 80.2977 1479.16 78.2519L1479.16 78.2514Z" fill="#E38C46"/>
<path d="M1490.79 62.0051C1489.39 67.5864 1483.64 70.9966 1477.94 69.6244C1472.24 68.2522 1468.75 62.6182 1470.15 57.037C1471.55 51.4557 1477.31 48.0454 1483.01 49.4177C1488.71 50.7899 1492.19 56.4262 1490.79 62.0051Z" fill="#FBBC12"/>
<path d="M1483.57 78.8388C1478.39 85.8924 1475.62 83.4719 1458.06 91.3802C1425.4 110.121 1453.45 179.211 1416.91 220.972L1369.05 209.479C1384.23 193.311 1413.1 164.297 1413.84 135.459C1414.61 101.628 1426.34 76.6377 1453.22 68.1799L1483.57 78.8364L1483.57 78.8388Z" fill="#FBBC12"/>
<rect width="195.445" height="191.973" rx="10" transform="matrix(0.973257 -0.229764 0.238871 0.971042 988.688 63.7031)" fill="#F5FAFF"/>
<path d="M1085.37 90.0859C1080.28 94.0649 1076.71 99.3797 1074.18 105.158C1070.05 113.415 1071.43 125.694 1075.15 131.284C1095.75 159.512 1132.32 139.902 1133.44 117.9C1135.27 109.346 1126.48 96.1366 1121.16 92.0217C1118.84 90.1019 1116.22 88.4082 1113.46 87.1297C1110.02 85.5404 1106.46 84.8274 1102.68 84.5621C1096.59 84.1343 1090.1 86.394 1085.37 90.0879L1085.37 90.0859Z" fill="#785E8A"/>
<path d="M1118.34 129.037C1133.37 134.713 1143.73 142.95 1147.66 151.011C1141.06 162.769 1132.29 165.264 1124.67 168.174C1115.66 155.803 1114.84 144.306 1114.2 132.69L1118.34 129.037Z" fill="#785E8A"/>
<path d="M1161.38 162.06C1161.25 162.057 1127.4 158.945 1127.4 158.945L1099.9 165.433C1099.9 165.433 1071.19 183.298 1071.08 183.358C1054.77 195.993 1059.31 222.856 1055.53 245.128L1203.85 210.147C1190.16 191.995 1181.76 166.043 1161.38 162.06L1161.38 162.06Z" fill="#CE4F37"/>
<path d="M1127.44 161.225L1120 141L1096.17 142.192L1100.76 167.536C1123 191 1123 191 1127.44 161.226L1127.44 161.225Z" fill="#EFB077"/>
<path d="M1123.43 150L1118.49 136.725L1095.93 142.046L1096.42 145L1110.43 149L1123.43 150Z" fill="#D08D55"/>
<path d="M1087.88 126.703C1089.17 128.527 1088.7 131.027 1086.84 132.288C1084.98 133.548 1082.43 133.092 1081.14 131.268L1077.6 126.247C1076.31 124.423 1076.78 121.923 1078.64 120.663C1080.5 119.402 1083.05 119.858 1084.34 121.682L1087.88 126.703Z" fill="#D08D55"/>
<path d="M1120.44 118.96C1120.14 121.158 1121.72 123.177 1123.96 123.47C1126.21 123.763 1128.27 122.22 1128.56 120.023L1129.38 113.974C1129.68 111.777 1128.1 109.758 1125.86 109.465C1123.62 109.172 1121.56 110.714 1121.26 112.912L1120.44 118.96Z" fill="#D08D55"/>
<path d="M1098 96.7953C1093.39 104.955 1088.15 112.767 1081.37 119.73C1084.88 128.63 1090.49 140.304 1093.17 142.08C1098.58 146.162 1107.44 147.724 1110.85 146.958L1111.75 146.746C1115.06 145.665 1121.79 139.777 1124.24 133.538C1125.44 130.958 1123.89 119.502 1122.38 110.481C1113.99 106.912 1105.85 102.372 1098 96.7928L1098 96.7953Z" fill="#EFB077"/>
<path d="M1084.57 130.378C1084.71 130.947 1084.35 131.519 1083.77 131.656C1083.19 131.793 1082.6 131.442 1082.46 130.874C1082.32 130.305 1082.68 129.733 1083.26 129.596C1083.84 129.459 1084.43 129.81 1084.57 130.378Z" fill="white"/>
<path d="M1127.14 120.277C1127.28 120.845 1126.93 121.418 1126.35 121.554C1125.77 121.691 1125.18 121.341 1125.04 120.772C1124.9 120.204 1125.26 119.631 1125.84 119.495C1126.42 119.358 1127 119.708 1127.14 120.277Z" fill="white"/>
<path d="M1345.15 67.66L1214.69 75.8137C1209.18 76.1582 1205 80.9052 1205.36 86.4164L1213.66 213.847C1214.02 219.358 1218.78 223.547 1224.29 223.202L1354.74 215.049C1360.26 214.704 1364.43 209.957 1364.07 204.446L1355.78 77.0151C1355.42 71.5039 1350.66 67.3155 1345.15 67.66Z" fill="#F5FAFF"/>
<path d="M1357.17 214.613C1357.21 214.507 1357.24 214.4 1357.22 214.284C1356.38 206.108 1347.77 179.873 1326.16 176.574L1301.75 173.448C1301.12 173.367 1300.48 173.347 1299.85 173.387L1275.92 174.9C1275.29 174.94 1274.66 175.039 1274.05 175.196L1251.04 181.125C1250.51 181.262 1249.98 181.44 1249.49 181.676C1228.64 191.613 1225.51 222.973 1226 222.974L1356.6 214.997C1356.85 214.982 1357.06 214.835 1357.17 214.613Z" fill="#9F73C2"/>
<path d="M1273.48 156.127C1273.48 156.127 1273.48 156.127 1273.48 156.128L1274.57 174.249C1274.84 178.736 1279.78 182.104 1287.34 181.677C1294.91 181.249 1299.41 177.344 1299.14 172.858L1298.66 164.71C1298.33 159.2 1293.59 154.988 1288.08 155.3L1273.48 156.127Z" fill="#F29E57"/>
<path d="M1292.97 173.915C1296.16 174.958 1299.18 173.558 1298.97 170.211L1298.49 162.064C1298.16 156.554 1293.42 152.342 1287.91 152.654L1280.5 153.073C1276.53 153.298 1273.5 156.701 1273.74 160.671C1273.88 163.027 1275.17 165.167 1277.19 166.398L1284.5 170.863C1285.16 171.268 1285.87 171.595 1286.61 171.836L1292.97 173.915Z" fill="#D38448"/>
<path d="M1284.13 118.319C1284.13 118.322 1284.13 118.321 1284.13 118.318C1284.13 118.317 1284.13 118.316 1284.13 118.315C1284.13 118.315 1284.13 118.315 1284.13 118.315C1284.13 118.313 1284.13 118.314 1284.13 118.317C1284.13 118.317 1284.13 118.318 1284.13 118.319Z" fill="#CF8548"/>
<path d="M1284.95 125.843C1284.95 125.845 1284.95 125.844 1284.95 125.842C1284.95 125.841 1284.95 125.841 1284.95 125.84L1284.95 125.84C1284.95 125.838 1284.95 125.841 1284.95 125.843Z" fill="#CF8548"/>
<path d="M1284.61 125.879C1284.61 125.879 1284.61 125.879 1284.61 125.878C1284.61 125.877 1284.61 125.872 1284.61 125.866C1284.61 125.865 1284.6 125.864 1284.6 125.863L1284.59 125.844C1284.6 125.858 1284.6 125.867 1284.61 125.878C1284.61 125.878 1284.61 125.879 1284.61 125.879Z" fill="#CF8548"/>
<path d="M1312.36 126.454C1311.82 126.038 1311.61 125.319 1311.84 124.679C1312.72 122.173 1312.69 120.085 1312.1 118.416C1310.62 114.218 1307.06 109.597 1303.55 106.857C1302.36 105.931 1300.91 105.347 1299.37 105.098C1295.08 104.402 1290.21 103.975 1286.05 102.705C1281.65 101.36 1276.97 102.101 1273.52 105.178C1272.06 106.489 1270.17 107.352 1268.2 107.376C1264.37 107.42 1261.14 109.878 1259.33 113.009C1258.71 114.074 1258.39 115.264 1258.33 116.476C1258.16 119.418 1257.53 122.757 1256.11 125.331C1254.66 127.939 1254.44 130.835 1255.24 133.656C1255.52 134.606 1255.87 135.474 1256.31 136.27C1258.72 140.696 1260.02 146.3 1262.53 150.67C1263.86 152.976 1266.61 154.191 1270.11 154.601C1277.4 155.457 1302.72 152.556 1303.96 152.476C1307.68 152.235 1310.88 150.092 1311.86 146.806C1312.7 143.988 1313.56 140.676 1314.89 138.049C1316.75 134.35 1316.48 129.417 1312.36 126.454Z" fill="#444869"/>
<path d="M1274.76 138.529C1275.34 141.048 1273.73 143.551 1271.16 144.119C1268.59 144.688 1266.03 143.107 1265.45 140.588L1263.91 133.866C1263.33 131.347 1264.94 128.844 1267.51 128.275C1270.08 127.707 1272.63 129.288 1273.21 131.807L1274.76 138.529Z" fill="#D67F43"/>
<path d="M1296.8 137.139C1296.55 139.71 1298.48 141.99 1301.1 142.232C1303.73 142.474 1306.05 140.586 1306.3 138.015L1306.96 131.154C1307.2 128.583 1305.28 126.303 1302.66 126.061C1300.03 125.819 1297.71 127.707 1297.46 130.278L1296.8 137.139Z" fill="#D67F43"/>
<path d="M1298.96 121.303C1298.96 121.303 1298.96 121.304 1298.96 121.304C1282.4 125.938 1280.26 116.945 1273.26 120.261C1270.92 121.368 1269.76 123.935 1269.56 126.516C1268.93 134.722 1268.73 145.769 1270.4 153.883C1272.44 162.537 1278.17 168.744 1286.58 167.946C1287.13 167.894 1287.67 167.86 1288.22 167.843C1296.67 167.581 1301.54 160.707 1302.43 151.869C1303.11 142.41 1300.83 129.592 1298.96 121.303C1298.96 121.303 1298.96 121.303 1298.96 121.303Z" fill="#F29E57"/>
<rect width="155.759" height="151.976" rx="10" transform="matrix(0.994102 0.108457 -0.11294 0.993601 169.891 60.1486)" fill="#F5FAFF"/>
<path d="M266.809 182.788C266.727 182.756 245.297 170.408 245.297 170.408L226.797 168.932C226.797 168.932 203.083 175.805 202.996 175.818C189.339 180.499 185.768 199.727 177.908 213.883L282.718 225.33C278.235 209.826 279.078 190.3 266.807 182.787L266.809 182.788Z" fill="#31CE5D"/>
<path d="M245.225 172.602L244.998 158.509L229.06 156.765L226.374 170.549C229.295 175.438 238.751 177.792 245.226 172.603L245.225 172.602Z" fill="#EFB077"/>
<path d="M244.903 171L244.903 158.365L228.966 156.621L227.92 162.969L244.903 171Z" fill="#D08D55"/>
<path d="M227.389 144.813C227.788 146.286 226.885 147.794 225.374 148.181C223.862 148.568 222.314 147.688 221.915 146.215L220.819 142.16C220.42 140.687 221.322 139.179 222.834 138.792C224.345 138.405 225.894 139.285 226.293 140.759L227.389 144.813Z" fill="#D08D55"/>
<path d="M250.421 147.332C249.7 148.683 250.241 150.348 251.628 151.052C253.015 151.756 254.724 151.233 255.444 149.882L257.427 146.164C258.148 144.814 257.608 143.148 256.221 142.444C254.833 141.74 253.125 142.264 252.404 143.614L250.421 147.332Z" fill="#D08D55"/>
<path d="M241.145 127.847C236.195 132.058 230.461 124.345 224.841 138.841C224.987 145.393 225.837 154.22 227.148 155.98C229.682 159.856 235.065 162.899 237.462 163.186L238.098 163.255C240.511 163.318 246.295 161.06 249.38 157.593C250.779 156.203 252.518 148.449 253.706 142.28C253.692 132.928 244.913 133.251 241.147 127.846L241.145 127.847Z" fill="#EFB077"/>
<path d="M224.338 146.432C224.292 146.831 223.923 147.119 223.514 147.074C223.104 147.029 222.809 146.669 222.855 146.27C222.9 145.871 223.269 145.583 223.679 145.628C224.088 145.673 224.383 146.033 224.338 146.432Z" fill="white"/>
<path d="M254.455 149.725C254.41 150.124 254.04 150.412 253.631 150.367C253.221 150.322 252.926 149.962 252.972 149.563C253.017 149.164 253.386 148.876 253.796 148.921C254.205 148.966 254.501 149.326 254.455 149.725Z" fill="white"/>
<path d="M256.928 128.584C254.155 127.492 251.337 124.719 248.577 121.489C243.41 114.82 233.245 114.459 229.387 124.333C221.652 123.092 221.757 129.563 221.678 138.361L222.874 140.267L224.77 145.002C225.854 138.361 228.007 134.562 229.694 132.545C237.004 125.668 242.429 135.033 251.313 136.865C252.215 139.299 253.303 143.057 252.614 148.107L255.917 144.385L257.803 142.145C262.512 131.983 260.651 129.846 256.93 128.584L256.928 128.584Z" fill="#524F54"/>
<rect width="208.796" height="204.744" rx="10" transform="matrix(0.99182 0.127658 -0.132913 0.991126 828.023 11.9023)" fill="#F5FAFF"/>
<path d="M980.543 237.94C981.125 225.923 977.624 198.564 953.768 190.296L925.813 181.332L896.254 177.547L866.894 179.121C841.669 181.077 831.079 206.627 828.476 218.385L980.541 237.942L980.543 237.94Z" fill="#31CE5D"/>
<path d="M901.643 156.889L898.832 176.949C898.136 181.915 902.801 186.647 911.169 187.78C919.538 188.913 925.33 185.595 926.027 180.629L928.838 160.569L901.641 156.889L901.643 156.889Z" fill="#F29E57"/>
<path d="M904.945 166.996C910.445 172.996 926.702 174.232 926.945 172.496L929.232 157.647L902.036 153.967L900.947 161.496L904.945 166.996Z" fill="#E28C4B"/>
<path d="M923.34 114.185C923.34 114.185 923.341 114.176 923.34 114.165L923.328 114.133C923.333 114.154 923.336 114.168 923.34 114.185Z" fill="#CF8548"/>
<path d="M922.509 123.603C922.509 123.603 922.51 123.594 922.511 123.584L922.5 123.555C922.505 123.574 922.507 123.588 922.509 123.601L922.509 123.603Z" fill="#CF8548"/>
<path d="M922.073 123.545C922.073 123.545 922.074 123.535 922.072 123.526L922.062 123.496C922.066 123.515 922.07 123.529 922.073 123.543L922.073 123.545Z" fill="#CF8548"/>
<path d="M905.957 136.93C906.049 139.88 903.629 142.329 900.552 142.398C897.474 142.47 894.904 140.136 894.813 137.188L894.566 129.319C894.474 126.37 896.894 123.923 899.972 123.851C903.049 123.78 905.619 126.114 905.71 129.063L905.957 136.932L905.957 136.93Z" fill="#D67F43"/>
<path d="M931.465 140.644C930.596 143.47 932.287 146.449 935.241 147.296C938.195 148.145 941.294 146.542 942.162 143.716L944.479 136.178C945.347 133.352 943.658 130.373 940.704 129.526C937.75 128.677 934.651 130.28 933.783 133.106L931.465 140.644Z" fill="#D67F43"/>
<path d="M937.944 120.722C917.925 112.377 918.777 104.964 904.365 115.67C901.486 124.736 897.988 137.607 898.068 148.717C898.451 159.182 903.445 168.996 914.445 167.496C923.445 171.996 932.131 163.524 935.265 153.512C938.205 143.068 938.2 130.414 937.942 120.721L937.944 120.722Z" fill="#F29E57"/>
<path d="M942.507 110.582C934.388 98.4642 913.23 93.4301 908.872 105.756C899.612 104.001 899.21 114 898.791 124.637C899.081 124.596 899.901 125.252 901.403 125.449L900.383 132.118L903.571 132.634C905.106 124.728 906.828 118.14 908.932 115.758C917.979 107.683 924.168 119.136 934.786 121.646C935.781 124.619 935.551 130.395 934.522 136.58L937.724 136.993L938.021 129.214L940.902 129.698C946.191 120.458 946.261 115.803 942.509 110.582L942.507 110.582Z" fill="#FBBC12"/>
<path d="M923.969 149.541C923.809 150.735 922.679 151.515 921.434 151.355L912.604 150.219C911.359 150.059 910.473 149.02 910.632 147.826C910.792 146.632 911.924 145.853 913.168 146.012L921.997 147.148C923.242 147.308 924.129 148.347 923.969 149.541Z" fill="#F29E57"/>
<path d="M660.924 88.5634L531.773 68.5726C526.315 67.7278 521.178 71.463 520.298 76.9154L499.948 203.097C499.069 208.55 502.78 213.655 508.238 214.499L637.39 234.49C642.847 235.335 647.985 231.6 648.864 226.147L669.214 99.9654C670.094 94.5131 666.382 89.4082 660.924 88.5634Z" fill="#F5FAFF"/>
<path d="M636.361 234.126L628.452 189.742C627.356 184.429 622.89 180.408 616.969 178.61C616.879 178.564 616.786 178.538 616.694 178.493L544.513 167.395C544.367 167.416 544.222 167.433 544.075 167.458C538.175 167.574 532.985 170.038 530.38 174.576L508.909 214.41L636.359 234.126L636.361 234.126Z" fill="#B2ECFF"/>
<path d="M629.143 184.43C623.05 169.914 607.151 167.238 609.078 149.842C613.041 141.827 614.44 134.358 614.747 127.127C614.91 115.625 610.41 104.623 606.047 101.291C601.825 97.1039 589.755 93.3199 580.966 97.0343C572.159 101.31 566.355 108.859 563.433 119.161C561.221 126.642 560.825 134.024 562.691 142.721C558.608 158.842 543.073 157.781 532.909 169.489C529.765 173.597 526.862 177.939 525.429 183.715C553.701 207.569 587.301 217.795 631.762 200.226C632.224 194.299 630.835 189.29 629.143 184.431L629.143 184.43Z" fill="#62D5FA"/>
<path d="M573.377 142.285C574.733 153.004 572.224 167.971 580.509 171.073C587.184 172.881 591.761 158.512 596.864 146.901L573.375 142.285L573.377 142.285Z" fill="#427F93"/>
<path d="M569.876 138.534C567.317 138.137 565.71 134.867 566.296 131.246C566.883 127.624 569.442 125.003 572.002 125.4C574.563 125.798 576.168 129.068 575.582 132.687C574.996 136.306 572.437 138.931 569.876 138.534ZM571.757 126.917C569.787 126.611 568.231 128.691 567.78 131.476C567.329 134.26 568.152 136.712 570.121 137.017C572.091 137.323 573.492 135.219 573.943 132.433C574.395 129.646 573.725 127.222 571.757 126.917Z" fill="#FBBC12"/>
<path d="M602.243 143.561C599.682 143.164 598.077 139.894 598.663 136.273C599.25 132.652 601.809 130.03 604.369 130.428C606.93 130.825 608.535 134.095 607.949 137.714C607.363 141.334 604.804 143.959 602.243 143.561ZM604.124 131.944C602.154 131.638 600.598 133.719 600.147 136.503C599.696 139.288 600.519 141.739 602.488 142.045C604.458 142.35 605.86 140.246 606.311 137.46C606.762 134.674 606.092 132.25 604.124 131.944Z" fill="#FBBC12"/>
<path d="M591.518 105.936C589.863 104.503 573.925 108.108 573.04 117.004C572.165 122.242 571.627 139.614 573.364 142.287C575.848 146.692 581.59 150.498 584.242 151.033L584.954 151.117C587.645 151.411 594.302 149.558 598.057 146.122C600.553 144.104 605.527 127.423 606.35 122.176C608.499 113.883 595.866 106.341 591.518 105.938L591.518 105.936Z" fill="#F4A762"/>
<path d="M573.444 115.17C577.477 116.936 579.306 114.696 583.658 110.958C587.586 107.186 596.779 108.377 599.29 113.673C601.562 118.022 601.561 119.897 606.424 120.088C608.677 101.457 576.68 97.5565 573.444 115.17Z" fill="#427F93"/>
<rect width="213.044" height="208.687" rx="10" transform="matrix(0.995755 -0.0920535 0.0958682 0.995393 284.219 39.25)" fill="#F5FAFF"/>
<path d="M492.434 229.715C490.06 216.513 479.596 187.615 452.526 184.348L420.984 181.306L389.047 184.279L358.649 193.029C332.682 201.202 327.921 231.513 328.109 244.917L492.432 229.718L492.434 229.715Z" fill="#F2A21D"/>
<path d="M401.144 117.621C401.144 117.621 401.143 117.613 401.14 117.601L401.125 117.574C401.133 117.594 401.138 117.605 401.146 117.621L401.144 117.621Z" fill="#CF8548"/>
<path d="M385.617 159.402L388.134 185.414C388.653 190.779 395.888 194.495 406.794 193.482C417.7 192.47 424.094 187.488 423.575 182.124L421.058 156.113L385.617 159.402Z" fill="#F6A55C"/>
<path d="M423.387 176.593L421.497 157.059L386.633 162.659L414.6 183.47C421.5 186.5 423.622 179.03 423.387 176.593Z" fill="#D18343"/>
<path d="M411.568 111.618L388.633 113.747C384.569 114.124 381.586 117.657 381.971 121.637L385.059 153.563C385.444 157.544 389.051 160.465 393.116 160.087L416.051 157.959C420.116 157.581 423.099 154.048 422.713 150.068L419.625 118.142C419.24 114.161 415.633 111.24 411.568 111.618Z" fill="#F6A55C"/>
<path d="M420.172 138.319C420.091 140.681 421.981 142.662 424.394 142.741C426.807 142.819 428.828 140.968 428.909 138.607L429.226 129.337C429.308 126.974 427.416 124.994 425.003 124.914C422.592 124.835 420.568 126.686 420.488 129.049L420.172 138.321L420.172 138.319Z" fill="#F6A55C"/>
<path d="M402.433 126.613C402.433 126.613 402.432 126.605 402.431 126.595L402.414 126.57C402.422 126.588 402.427 126.6 402.433 126.613Z" fill="#CF8548"/>
<path d="M385.18 141.559C385.711 143.864 384.234 146.158 381.879 146.679C379.524 147.2 377.184 145.753 376.653 143.449L374.563 134.402C374.031 132.095 375.508 129.803 377.863 129.281C380.216 128.76 382.558 130.206 383.09 132.513L385.178 141.561L385.18 141.559Z" fill="#F6A55C"/>
<path d="M423.024 127.935L418.975 128.361L419.96 138.353C420.079 139.557 419.502 141.135 418.784 142.133C418.064 143.135 416.757 144.03 415.692 144.131L403.117 145.353L391.068 146.416C390 146.511 388.547 145.872 387.646 145.023C386.749 144.173 385.878 142.732 385.765 141.526L384.817 131.531L380.227 131.908L381.985 150.813C382.62 156.669 389.556 169.972 391.413 170.629C392.965 172.095 395.439 173.031 397.277 172.877L413.526 171.352C415.361 171.166 417.612 169.799 418.855 168.074C420.78 166.153 425.903 150.469 424.92 146.823L423.024 127.935Z" fill="#B86C26"/>
<path d="M402.026 126.652C402.026 126.652 402.026 126.644 402.023 126.634L402.008 126.609C402.016 126.627 402.021 126.639 402.028 126.652L402.026 126.652Z" fill="#CF8548"/>
<path d="M421.233 107.147C417.175 106.433 412.573 103.45 407.917 99.8311C399.022 92.2127 385.2 94.5337 382.838 108.996C372.042 109.453 374.049 118.202 376.478 130.161L379.568 129.995L380.774 138.548L385.434 138.116C384.982 128.807 383.925 123.256 385.621 120.053C393.504 108.701 403.524 119.906 416.041 119.934C417.96 122.987 419.152 127.829 419.676 134.871L423.637 134.585L422.98 125.524L426.322 125.303C429.749 110.214 426.621 107.829 421.235 107.147L421.233 107.147Z" fill="#4C3B34"/>
<path d="M411.526 152.018C411.674 153.543 410.53 154.897 408.973 155.041L398.298 156.029C396.741 156.173 395.359 155.053 395.212 153.528C395.065 152.003 396.208 150.649 397.765 150.505L408.44 149.517C409.997 149.373 411.379 150.493 411.526 152.018Z" fill="#F6A55C"/>
<path d="M9.76441 81.6362L147.093 51.4514C152.487 50.2658 157.858 53.6689 159.091 59.0525L189.815 193.259C191.047 198.643 187.674 203.968 182.28 205.154L44.9515 235.338C39.5574 236.524 34.1855 233.121 32.953 227.737L2.22914 93.5308C0.996679 88.1472 4.37033 82.8218 9.76441 81.6362Z" fill="#F5FAFF"/>
<path d="M64.3571 188.268C64.4583 188.223 94.3006 171.559 94.3006 171.559L112.647 167.542C112.647 167.542 143.824 170.848 143.935 170.847C161.505 173.486 167.651 192.653 178.773 206.032L48.0734 234.646C52.3431 217.897 49.6006 197.986 64.359 188.268L64.3571 188.268Z" fill="#9F73C2"/>
<path d="M88.1008 148.996L94.8553 177.168C115.951 219.897 122.537 194.77 115.595 174.261L109.646 157.439L88.1025 148.997L88.1008 148.996Z" fill="#D08B6F"/>
<path d="M68.4839 140.768C70.9166 141.92 72.0356 143.649 72.6474 145.507C73.4735 148.016 76.6495 150.183 79.2413 149.805C81.363 149.496 83.0172 150.14 84.2724 151.522C85.3391 152.695 87.6833 153.054 89.0294 152.197C91.2448 150.785 92.9401 150.757 94.1845 151.899C96.9453 154.434 101.576 149.853 105.094 147.85C110.95 144.517 117.818 139.677 115.651 133.852C114.914 131.874 115.363 129.855 116.684 128.525C118.002 127.199 117.628 124.5 116.547 122.96C115.45 121.398 114.578 119.767 115.292 117.824C116.035 115.808 114.344 112.971 112.295 111.968C110.793 111.232 109.415 110.368 109.229 108.269C109.042 106.155 106.33 104.069 104.247 104.362C102.169 104.655 100.374 103.499 98.6875 101.822C97.0968 100.24 93.9797 99.4114 92.0386 100.555C90.3204 101.567 88.1622 101.405 85.8483 100.882C84.2933 100.529 82.2381 100.893 81.193 102.115C79.6869 103.876 77.8113 104.725 75.6842 104.885C73.8678 105.023 71.8793 106.533 71.5676 108.224C71.1906 110.269 70.0117 111.829 67.9155 112.793C65.9909 113.677 64.6648 116.448 65.2753 118.42C65.9114 120.478 65.5959 122.37 64.1123 124.018C62.6911 125.596 63.0572 128.609 64.3163 130.345C65.4486 131.907 66.3305 133.538 65.6924 135.466C65.0775 137.325 66.61 139.88 68.4835 140.767L68.4839 140.768Z" fill="#50598E"/>
<path d="M49.3434 118.801C50.9641 119.674 51.6667 120.893 52.0174 122.185C52.4907 123.93 54.5826 125.52 56.3667 125.352C57.8284 125.215 58.9352 125.713 59.7432 126.701C60.4301 127.54 62.0185 127.868 62.9695 127.329C64.536 126.443 65.695 126.482 66.5048 127.306C68.2991 129.135 71.6308 126.166 74.1093 124.921C78.2326 122.848 83.1037 119.779 81.8328 115.723C81.4007 114.345 81.7808 112.981 82.7332 112.118C83.6815 111.257 83.5241 109.4 82.8416 108.309C82.1496 107.203 81.6113 106.058 82.1706 104.756C82.7516 103.403 81.6994 101.406 80.3349 100.648C79.3354 100.094 78.4247 99.4535 78.3738 98.0128C78.3235 96.5616 76.545 95.0403 75.1098 95.1687C73.6776 95.2964 72.4943 94.4428 71.4014 93.2394C70.3715 92.1018 68.2713 91.4273 66.903 92.141C65.6922 92.7732 64.223 92.5862 62.6606 92.1483C61.6104 91.8538 60.1922 92.03 59.4342 92.8289C58.3412 93.9794 57.0284 94.4938 55.5679 94.5304C54.3222 94.56 52.9072 95.5241 52.6336 96.6684C52.3018 98.0525 51.4388 99.0776 49.9707 99.6627C48.6224 100.2 47.6157 102.047 47.9615 103.417C48.3222 104.844 48.0365 106.127 46.9625 107.203C45.9335 108.231 46.0739 110.304 46.872 111.533C47.5897 112.64 48.1329 113.786 47.626 115.082C47.1386 116.33 48.0933 118.13 49.3408 118.803L49.3434 118.801Z" fill="#50598E"/>
<path d="M110.818 123.126C111.696 126.8 112.871 129.739 115.828 134.594C118.204 140.204 117.242 147.224 113.858 154.179C110.903 159.381 101.12 159.082 96.9833 157.136C86.8944 152.642 85.4399 147.728 85.1528 137.063C79.7499 124.859 84.3095 120.17 90.6619 119.635C96.0367 119.152 99.0671 118.193 101.164 117.034C104.04 115.446 108.265 114.915 110.818 123.126Z" fill="#D08B6F"/>
<path d="M77.7043 135.825C76.203 138.096 77.6307 141.619 80.8938 143.692C84.157 145.766 86.3643 144.716 87.8657 142.445C89.367 140.174 89.5934 137.539 86.3303 135.466C83.0672 133.393 79.2056 133.554 77.7043 135.825Z" fill="#D08B6F"/>
<path d="M109.621 157.448C103.426 159.514 97.172 157.74 94.2297 155.227C100.787 163.395 109.248 163.067 111.372 162.38L109.621 157.449L109.621 157.448Z" fill="#AE7159"/>
<path d="M83.8441 143.018C83.1267 143.174 82.4154 142.731 82.2553 142.028C82.0952 141.325 82.5468 140.628 83.2642 140.471C83.9815 140.314 84.6928 140.758 84.8529 141.461C85.0131 142.164 84.5614 142.861 83.8441 143.018Z" fill="#FFCA6E"/>
</svg>
